# xmcd
#
# Track frame offsets: 
#        190
#        13660
#        26595
#        40630
#        55645
#        69770
#        84600
#        99507
#        119550
#        132735
#        153012
#        166402
#        177520
#        189450
#        200275
#        214697
#        229235
#        242555
#        256950
#        268960
#        280375
#
# Disc length: 3911 seconds
#
# Revision: 2
# Processed by: cddbd v1.5.2PL0 Copyright (c) Steve Scherf et al.
# Submitted via: ExactAudioCopy v0.95b4
#
DISCID=260f4515
DTITLE=Boozoo Chavis - Zydaco Trail Ride with Boozoo Chavis
DYEAR=1900
DGENRE=Zydeco
TTITLE0=I want to Play with Your Poodle
TTITLE1=Zydeco Coteau
TTITLE2=Boozoo's Trail Ride Breakdown
TTITLE3=Your Mama and Papa
TTITLE4=Madeleine
TTITLE5=Zydeco Mardi Gras
TTITLE6=What's The Matter Now
TTITLE7=Harlem Shuffle
TTITLE8=Bye Bye Jolie
TTITLE9=Black Gal
TTITLE10=Telephone Blues
TTITLE11=Deacon Jones
TTITLE12=Went To New Orleans
TTITLE13=Uncle Bud
TTITLE14=Paper In My Shoe
TTITLE15=Motor Dude Special
TTITLE16=Blues All Around My Bed
TTITLE17=Leona Had A Party
TTITLE18=Dance All Night
TTITLE19=Dog Hill
TTITLE20=Boozoo's Theme Song
EXTD=
EXTT0=
EXTT1=
EXTT2=
EXTT3=
EXTT4=
EXTT5=
EXTT6=
EXTT7=
EXTT8=
EXTT9=
EXTT10=
EXTT11=
EXTT12=
EXTT13=
EXTT14=
EXTT15=
EXTT16=
EXTT17=
EXTT18=
EXTT19=
EXTT20=
PLAYORDER=
